<?xml version="1.0" standalone="no"?>
<!DOCTYPE svg PUBLIC "-//W3C//DTD SVG 20010904//EN"
 "http://www.w3.org/TR/2001/REC-SVG-20010904/DTD/svg10.dtd">
<svg version="1.0" xmlns="http://www.w3.org/2000/svg"
 width="160.000000pt" height="160.000000pt" viewBox="0 0 160.000000 160.000000"
 preserveAspectRatio="xMidYMid meet">
<metadata>
Created by potrace 1.14, written by Peter Selinger 2001-2017
</metadata>
<g transform="translate(0.000000,160.000000) scale(0.100000,-0.100000)"
fill="#000000" stroke="none">
<path d="M209 1479 c-15 -26 -17 -113 -7 -279 5 -79 3 -116 -8 -150 -8 -25
-19 -60 -25 -78 -22 -66 -37 -253 -27 -327 5 -38 13 -74 17 -80 8 -11 41 -107
47 -139 2 -10 15 -33 29 -51 22 -30 25 -43 25 -119 0 -47 4 -86 8 -86 26 0 42
39 42 101 0 64 0 64 15 35 16 -31 17 -35 30 -103 10 -59 31 -75 56 -44 l19 23
0 -46 c0 -25 4 -46 8 -46 5 0 16 18 26 41 10 22 20 38 23 35 3 -2 -2 -19 -11
-36 -8 -18 -18 -48 -22 -69 -7 -35 -6 -36 13 -19 11 10 23 18 27 18 3 0 28 22
55 50 54 56 64 60 57 28 -11 -51 -11 -73 2 -71 6 2 12 -3 12 -10 0 -8 10 -23
23 -35 23 -22 25 -22 490 -22 l467 0 0 545 0 545 -22 -4 c-24 -4 -40 -9 -73
-22 -33 -12 -105 -11 -105 1 0 7 -18 37 -40 67 l-39 55 7 87 c10 106 -4 170
-44 204 -38 33 -79 26 -198 -32 -83 -40 -97 -44 -127 -36 -56 16 -324 12 -396
-6 -61 -15 -64 -15 -92 5 -63 45 -148 83 -197 88 -47 5 -53 3 -65 -18z"/>
</g>
</svg>
